<?xml version="1.0" standalone="no"?>
<!DOCTYPE svg PUBLIC "-//W3C//DTD SVG 20010904//EN"
 "http://www.w3.org/TR/2001/REC-SVG-20010904/DTD/svg10.dtd">
<svg version="1.0" xmlns="http://www.w3.org/2000/svg"
 width="778.000000pt" height="1010.000000pt" viewBox="0 0 778.000000 1010.000000"
 preserveAspectRatio="xMidYMid meet">
<metadata>
Created by potrace 1.15, written by Peter Selinger 2001-2017
</metadata>
<g transform="translate(0.000000,1010.000000) scale(0.100000,-0.100000)"
fill="#000000" stroke="none">
<path d="M3060 9750 c0 -5 -7 -10 -16 -10 -27 0 -100 -81 -109 -120 -15 -76
-4 -161 26 -194 11 -11 19 -26 19 -33 0 -7 6 -13 13 -13 7 0 23 -9 35 -20 32
-30 146 -28 207 3 47 23 62 57 25 57 -11 0 -20 -4 -20 -8 0 -11 -40 -29 -83
-37 -64 -12 -157 29 -157 69 0 9 -4 16 -8 16 -4 0 -14 21 -21 46 -11 38 -11
52 0 87 7 23 16 44 19 47 3 3 10 14 16 25 6 11 20 24 32 30 12 5 22 13 22 17
0 12 109 9 133 -4 31 -16 47 -34 47 -52 0 -9 7 -16 15 -16 21 0 19 52 -2 76
-10 11 -34 25 -54 32 -42 14 -139 16 -139 2z"/>
<path d="M5463 9746 c-13 -6 -23 -14 -23 -18 0 -5 -7 -8 -16 -8 -8 0 -22 -6
-30 -14 -8 -8 -14 -22 -14 -30 0 -9 -3 -16 -7 -16 -17 0 -33 -57 -33 -113 0
-43 6 -71 23 -101 27 -50 61 -86 82 -86 8 0 15 -4 15 -10 0 -15 146 -12 172 3
35 20 88 75 88 92 0 8 5 15 10 15 6 0 10 32 10 76 0 74 -19 133 -55 169 -5 6
-29 20 -51 33 -46 24 -131 29 -171 8z m137 -36 c0 -5 7 -10 15 -10 9 0 27 -11
40 -25 14 -13 25 -31 25 -40 0 -8 5 -15 10 -15 14 0 13 -126 -1 -152 -19 -36
-74 -85 -103 -92 -50 -12 -111 3 -150 39 -20 18 -36 40 -36 49 0 9 -4 16 -10
16 -6 0 -10 30 -10 70 0 40 4 70 10 70 6 0 10 6 10 13 0 19 45 67 64 67 9 0
16 5 16 10 0 6 27 10 60 10 33 0 60 -4 60 -10z"/>
<path d="M6245 9747 c-41 -25 -49 -39 -49 -89 0 -43 4 -53 31 -77 17 -15 50
-36 72 -46 23 -10 41 -22 41 -27 0 -4 7 -8 15 -8 20 0 35 -41 28 -71 -11 -39
-32 -53 -84 -53 -38 0 -53 5 -68 23 -19 21 -22 22 -36 7 -14 -13 -14 -18 -3
-28 31 -28 61 -38 118 -38 51 0 65 4 85 25 20 20 25 34 25 78 0 49 -3 57 -35
85 -19 18 -41 32 -50 32 -8 0 -15 5 -15 10 0 6 -7 10 -16 10 -9 0 -29 14 -45
31 -23 24 -27 37 -22 57 10 40 27 52 73 52 43 0 70 -17 70 -44 0 -9 8 -16 20
-16 15 0 20 7 20 26 0 44 -45 74 -112 73 -24 0 -52 -6 -63 -12z"/>
<path d="M1410 9736 c0 -8 7 -21 15 -30 8 -8 15 -22 15 -30 0 -9 5 -16 10 -16
6 0 10 -13 10 -30 0 -16 5 -30 10 -30 6 0 10 -13 10 -30 0 -16 3 -30 8 -30 4
0 18 -36 32 -80 14 -44 28 -80 32 -80 5 0 8 -9 8 -20 0 -13 7 -20 18 -20 23 0
42 19 42 42 0 10 5 18 10 18 6 0 10 14 10 30 0 17 3 30 8 30 4 0 18 36 32 80
14 44 28 80 32 80 5 0 8 14 8 30 0 17 3 30 8 30 10 0 36 60 29 67 -4 3 -16 3
-29 0 -19 -5 -28 -22 -48 -87 -14 -44 -28 -80 -32 -80 -5 0 -8 -13 -8 -30 0
-16 -4 -30 -10 -30 -5 0 -10 -13 -10 -30 0 -16 -4 -30 -10 -30 -5 0 -10 -9
-10 -20 0 -11 -3 -20 -6 -20 -14 0 -34 31 -34 53 0 14 -3 27 -8 29 -4 2 -23
50 -42 108 -19 58 -41 113 -50 123 -17 21 -50 23 -50 3z"/>
<path d="M2313 9743 c-7 -2 -13 -13 -13 -24 0 -10 -4 -19 -10 -19 -5 0 -10
-13 -10 -30 0 -16 -3 -30 -8 -30 -4 0 -18 -36 -32 -80 -14 -44 -28 -80 -32
-80 -5 0 -8 -13 -8 -30 0 -16 -4 -30 -10 -30 -5 0 -10 -9 -10 -20 0 -11 -4
-20 -10 -20 -5 0 -10 -9 -10 -20 0 -23 25 -27 44 -7 6 6 18 32 26 57 20 64 30
70 102 70 66 0 88 -10 88 -42 0 -10 5 -18 10 -18 6 0 10 -7 10 -15 0 -32 23
-65 47 -65 25 0 32 24 10 37 -7 4 -24 43 -38 85 -13 43 -27 78 -31 78 -5 0 -8
14 -8 30 0 17 -4 30 -8 30 -4 0 -14 21 -21 48 -26 91 -42 110 -78 95z"/>
<path d="M3720 9736 c0 -8 6 -16 13 -18 8 -3 13 -47 17 -155 l5 -150 37 -37
c34 -34 40 -36 98 -36 59 0 93 10 115 34 30 34 35 61 35 189 0 121 2 134 20
147 27 20 25 40 -4 40 -56 0 -56 0 -56 -167 0 -153 0 -154 -27 -181 -22 -22
-35 -26 -80 -26 -93 2 -106 27 -113 224 l-5 145 -27 3 c-20 2 -28 -1 -28 -12z"/>
<path d="M4560 9581 c0 -177 -3 -201 -26 -201 -8 0 -14 -9 -14 -20 0 -15 7
-20 29 -20 17 0 31 6 35 16 3 9 6 78 6 155 0 117 2 139 15 139 8 0 15 -6 15
-13 0 -7 9 -19 20 -27 11 -8 20 -21 20 -30 0 -9 9 -22 20 -30 11 -8 20 -20 20
-27 0 -7 14 -27 30 -45 17 -17 30 -37 30 -44 0 -8 4 -14 8 -14 5 0 15 -12 23
-27 19 -38 35 -53 53 -53 14 0 16 23 16 180 0 169 1 181 20 192 27 17 25 38
-4 38 -56 0 -56 0 -56 -166 0 -96 -4 -154 -10 -154 -5 0 -10 7 -10 15 0 8 -4
15 -8 15 -5 0 -15 12 -23 28 -8 15 -22 36 -31 46 -10 11 -18 25 -18 31 0 6 -9
17 -20 25 -11 8 -20 21 -20 30 0 9 -9 22 -20 30 -11 8 -20 21 -20 28 0 15 -56
72 -71 72 -5 0 -9 -76 -9 -169z"/>
<path d="M1280 8710 l0 -410 2640 0 2640 0 0 410 0 410 -2640 0 -2640 0 0
-410z m5260 0 l0 -390 -2620 0 -2620 0 0 390 0 390 2620 0 2620 0 0 -390z"/>
<path d="M1580 8890 c0 -5 -7 -10 -16 -10 -22 0 -38 -19 -53 -66 -11 -33 -11
-46 -1 -64 21 -39 54 -67 119 -99 66 -34 86 -67 58 -96 -24 -23 -99 -20 -117
5 -20 27 -43 25 -57 -6 -10 -21 -10 -29 2 -40 7 -8 20 -14 28 -14 9 0 17 -5
19 -11 5 -15 111 -14 147 1 58 24 74 138 27 185 -14 14 -32 25 -41 25 -8 0
-15 5 -15 10 0 6 -9 10 -20 10 -11 0 -20 5 -20 10 0 6 -7 10 -16 10 -23 0 -44
25 -44 53 0 35 48 54 90 37 18 -8 30 -20 30 -31 0 -14 7 -19 30 -19 25 0 30 4
30 25 0 37 -21 75 -42 75 -10 0 -18 5 -18 10 0 6 -27 10 -60 10 -33 0 -60 -4
-60 -10z"/>
<path d="M2117 8893 c-15 -14 -6 -51 13 -56 19 -5 20 -14 20 -165 0 -88 3
-167 6 -176 5 -13 26 -16 125 -16 l119 0 0 50 c0 49 -1 50 -30 50 -23 0 -30
-4 -30 -20 0 -18 -7 -20 -60 -20 l-60 0 0 60 0 60 65 0 65 0 0 30 0 30 -65 0
-65 0 0 60 0 60 49 0 c41 0 51 -4 56 -20 4 -14 15 -20 36 -20 27 0 29 2 29 40
0 29 -5 42 -19 50 -21 11 -244 14 -254 3z"/>
<path d="M2740 8872 c0 -16 8 -34 20 -42 19 -13 20 -26 20 -182 l0 -168 119 0
c131 0 131 0 131 66 0 31 -3 34 -29 34 -21 0 -32 -6 -36 -20 -5 -16 -15 -20
-55 -20 -61 0 -59 -6 -62 193 -3 164 -4 167 -70 167 -35 0 -38 -2 -38 -28z"/>
<path d="M3340 8870 c0 -23 4 -30 20 -30 19 0 20 -7 20 -180 l0 -180 118 0
c78 0 122 4 130 12 7 7 12 29 12 50 0 35 -2 38 -28 38 -16 0 -32 -8 -40 -20
-9 -16 -23 -20 -62 -20 -44 0 -50 3 -56 24 -3 13 -4 38 -2 57 l3 34 63 3 c61
3 62 3 62 32 0 29 -1 29 -62 32 l-63 3 0 55 0 55 38 3 c29 3 43 -2 56 -17 10
-12 30 -21 45 -21 23 0 26 4 26 36 0 59 -13 64 -154 64 l-126 0 0 -30z"/>
<path d="M4095 8886 c-34 -12 -86 -61 -106 -97 -16 -31 -16 -167 0 -198 20
-37 63 -82 95 -98 34 -18 169 -20 174 -4 2 6 11 11 19 11 21 0 55 40 48 58 -3
7 -5 16 -5 18 0 8 -26 4 -53 -8 -15 -7 -27 -16 -27 -20 0 -12 -89 -9 -112 3
-32 17 -68 56 -68 74 0 8 -4 15 -10 15 -14 0 -13 86 1 112 20 37 52 63 96 77
38 12 45 12 75 -6 18 -10 34 -29 36 -41 3 -17 10 -22 33 -22 27 0 29 3 29 39
0 32 -6 44 -31 65 -17 14 -35 24 -40 20 -5 -3 -9 0 -9 5 0 14 -106 12 -145 -3z"/>
<path d="M4673 8885 c-7 -8 -13 -30 -13 -50 0 -32 3 -35 28 -35 16 0 34 8 42
20 8 12 26 20 42 20 l28 0 0 -180 0 -180 40 0 40 0 0 180 0 180 28 0 c16 0 34
-8 42 -20 8 -12 26 -20 42 -20 25 0 28 3 28 36 0 60 -10 64 -182 64 -119 -1
-156 -4 -165 -15z"/>
<path d="M5480 8890 c0 -5 -7 -10 -15 -10 -16 0 -51 -18 -71 -36 -48 -43 -69
-165 -41 -243 13 -40 69 -101 91 -101 8 0 16 -5 18 -11 5 -15 140 -14 169 1
31 17 82 68 99 100 18 33 20 182 2 188 -6 2 -12 10 -12 18 0 22 -61 78 -101
92 -42 14 -139 16 -139 2z m99 -62 c42 -15 81 -50 81 -73 0 -8 5 -15 10 -15 6
0 10 -22 10 -50 0 -27 -4 -50 -10 -50 -5 0 -10 -7 -10 -15 0 -18 -36 -57 -68
-74 -26 -14 -92 -15 -92 -1 0 6 -7 10 -16 10 -24 0 -52 37 -65 83 -11 42 -4
117 12 117 5 0 9 8 9 18 0 11 16 26 43 39 51 26 51 26 96 11z"/>
<path d="M6165 8888 c-44 -26 -65 -57 -65 -96 0 -60 18 -85 83 -117 78 -39
110 -70 101 -98 -4 -12 -12 -25 -18 -29 -17 -11 -86 -9 -86 2 0 6 -9 10 -19
10 -11 0 -21 6 -23 12 -5 15 -38 -13 -38 -32 0 -34 60 -62 131 -62 54 0 62 3
94 35 29 29 35 42 35 76 0 53 -34 93 -115 133 -70 36 -61 28 -69 54 -8 26 23
64 53 64 26 0 51 -22 51 -45 0 -12 8 -16 33 -13 26 2 33 8 35 28 3 28 -19 60
-55 78 -28 15 -102 15 -128 0z"/>
<path d="M3600 6660 c-25 -4 -71 -15 -103 -24 -32 -9 -71 -16 -87 -16 -17 0
-30 -4 -30 -10 0 -5 5 -10 10 -10 6 0 10 -8 10 -18 0 -13 -16 -22 -62 -36 -34
-10 -79 -21 -100 -24 -45 -6 -51 -22 -8 -22 26 0 30 -4 30 -26 0 -14 -5 -35
-12 -47 -14 -28 -59 -67 -75 -67 -24 0 -13 -18 17 -29 17 -6 45 -16 62 -23 19
-7 80 -12 140 -12 117 0 131 -9 86 -48 -19 -16 -20 -21 -8 -29 8 -5 26 -12 40
-15 14 -3 41 -10 61 -16 20 -6 71 -9 113 -6 73 3 76 3 76 -19 0 -13 -4 -23
-10 -23 -5 0 -10 -4 -10 -9 0 -5 21 -12 48 -15 116 -16 171 -17 239 -5 60 11
72 16 67 29 -17 42 -12 45 68 42 42 -2 91 1 110 7 18 6 44 13 58 16 49 10 55
20 31 50 -11 15 -21 31 -21 34 0 4 46 7 103 7 82 -1 117 4 179 24 74 24 99 40
60 40 -28 0 -61 28 -82 70 -30 59 -27 70 20 70 22 0 40 5 40 10 0 6 -14 10
-32 10 -17 0 -45 4 -62 10 -17 5 -52 15 -79 22 -26 7 -46 17 -43 23 18 43 18
43 -26 48 -24 3 -63 10 -88 17 -94 24 -158 30 -240 24 -47 -4 -94 -11 -104
-16 -23 -13 -110 -12 -134 1 -24 13 -199 21 -252 11z"/>
<path d="M3050 6380 c-28 -17 -236 -79 -305 -90 -83 -14 -365 -8 -445 9 -30 7
-70 14 -87 18 -18 3 -33 8 -33 12 0 4 -12 8 -27 9 -15 1 -29 6 -32 10 -3 4
-21 9 -38 10 -41 4 -63 -16 -63 -59 0 -26 11 -42 55 -86 31 -29 59 -53 64 -53
4 0 22 -13 39 -30 18 -16 35 -30 39 -30 5 0 21 -11 37 -25 16 -14 33 -25 37
-25 4 0 14 -6 21 -13 16 -16 212 -117 227 -117 24 0 124 -53 149 -79 47 -50
72 -108 72 -167 0 -61 10 -69 26 -21 7 17 16 46 22 62 30 87 34 117 34 244 -1
132 0 138 29 195 20 39 59 87 116 142 78 75 103 108 63 84z"/>
<path d="M4770 6386 c0 -10 79 -86 89 -86 6 0 18 -12 28 -27 10 -16 30 -40 45
-55 16 -14 28 -33 28 -42 0 -9 3 -16 8 -16 21 0 32 -62 32 -189 0 -74 4 -148
9 -165 40 -131 56 -178 63 -182 4 -3 8 16 8 43 1 93 90 214 171 230 16 3 29 9
29 14 0 5 8 9 17 9 20 0 217 99 221 111 2 5 12 9 23 9 10 0 19 3 19 8 0 4 17
18 38 32 20 14 48 35 62 48 14 12 28 22 32 22 18 0 138 128 138 147 0 26 -32
63 -56 63 -11 0 -39 -8 -64 -16 -45 -17 -79 -25 -175 -46 -27 -6 -124 -13
-215 -15 -154 -4 -221 2 -315 27 -73 20 -181 54 -190 60 -14 10 -45 20 -45 16z"/>
<path d="M1600 5998 c0 -22 7 -38 20 -48 48 -34 -7 -42 -72 -10 -60 29 -68 26
-68 -20 l0 -40 -87 -1 c-49 0 -97 -3 -108 -6 -11 -2 -40 -8 -65 -12 -61 -11
-152 -42 -168 -58 -7 -7 -17 -13 -22 -13 -4 0 -21 -12 -36 -27 -55 -53 -69
-143 -34 -215 11 -23 20 -48 20 -55 0 -7 5 -13 10 -13 6 0 10 -9 10 -20 0 -11
4 -20 9 -20 5 0 14 -13 21 -30 7 -16 16 -30 20 -30 3 0 13 -12 21 -27 8 -15
29 -43 47 -62 17 -20 32 -39 32 -43 0 -10 148 -158 158 -158 4 0 27 -18 50
-40 24 -22 47 -40 51 -40 4 0 21 -11 37 -25 16 -14 35 -25 42 -25 6 0 12 -3
12 -8 0 -4 21 -18 48 -32 26 -13 49 -27 52 -30 6 -6 49 -23 135 -53 33 -12 63
-26 67 -32 4 -5 8 -7 8 -3 0 4 15 2 33 -3 17 -5 81 -17 142 -25 147 -22 286
-8 450 47 33 11 66 21 73 21 6 1 12 5 12 9 0 4 10 9 22 11 12 2 23 8 25 15 3
7 -3 10 -14 8 -26 -6 -98 -15 -177 -22 -68 -6 -235 9 -311 28 -70 18 -240 73
-245 80 -3 3 -17 9 -32 12 -15 4 -33 14 -42 22 -8 8 -22 15 -30 15 -9 0 -16 5
-16 10 0 6 -6 10 -13 10 -7 0 -23 9 -35 20 -12 11 -25 20 -30 20 -5 0 -23 14
-40 30 -18 17 -35 30 -40 30 -12 0 -164 150 -197 195 -17 22 -34 43 -38 46
-16 11 -15 93 0 124 19 36 52 67 64 59 5 -3 9 -2 9 3 0 9 48 33 67 33 7 0 13
4 13 9 0 5 23 11 50 15 57 8 90 -5 90 -34 0 -24 -21 -70 -32 -70 -4 0 -8 -6
-8 -14 0 -27 97 -48 205 -44 55 2 108 7 118 12 13 6 17 4 17 -13 0 -12 -4 -21
-10 -21 -5 0 -10 -6 -10 -13 0 -16 -72 -87 -88 -87 -7 0 -12 -3 -12 -6 0 -11
29 -34 44 -34 8 0 17 -4 20 -8 4 -7 64 -28 185 -63 60 -18 303 -18 309 -1 2 6
9 12 16 12 18 0 66 24 66 33 0 4 9 7 20 7 18 0 20 -7 20 -59 0 -54 2 -60 20
-58 11 1 20 4 20 8 0 4 8 9 18 12 47 15 153 106 160 138 2 7 7 16 10 19 21 16
52 112 52 160 0 35 -2 38 -35 44 -84 16 -225 71 -225 88 0 4 -6 8 -14 8 -8 0
-41 26 -73 58 -32 31 -76 70 -96 85 -21 16 -47 38 -60 50 -27 27 -139 87 -161
87 -9 0 -16 4 -16 9 0 5 -17 12 -37 15 -79 13 -170 27 -238 36 -96 12 -152 25
-170 40 -13 11 -15 8 -15 -22z"/>
<path d="M6225 6018 c-25 -15 -82 -27 -170 -38 -100 -12 -195 -28 -232 -39
-17 -5 -34 -7 -37 -3 -3 3 -6 0 -6 -6 0 -7 -6 -12 -14 -12 -18 0 -96 -40 -120
-62 -11 -10 -23 -18 -28 -18 -4 0 -35 -26 -69 -57 -33 -32 -65 -60 -71 -62 -6
-2 -29 -21 -52 -43 -41 -41 -169 -112 -180 -101 -3 4 -6 2 -6 -4 0 -6 -16 -14
-35 -17 -19 -3 -51 -9 -71 -12 -36 -6 -36 -7 -31 -49 4 -24 13 -62 22 -86 9
-24 17 -48 18 -54 1 -5 4 -12 7 -15 3 -3 17 -21 30 -40 30 -43 46 -60 57 -60
5 0 18 -9 30 -19 26 -25 103 -64 111 -57 3 4 4 31 3 61 -2 44 1 55 13 55 19 0
66 -21 66 -29 0 -31 261 -49 345 -24 150 44 195 59 195 66 0 4 8 7 18 7 19 0
42 18 42 32 0 4 -6 8 -13 8 -16 0 -67 52 -67 68 0 7 -4 12 -8 12 -10 0 -35 50
-28 57 2 3 13 0 24 -6 32 -17 205 -14 263 5 57 19 65 27 44 44 -8 7 -15 18
-15 25 0 8 -5 15 -12 17 -7 3 -9 14 -5 30 13 49 88 47 191 -4 98 -49 134 -105
113 -173 -6 -19 -14 -35 -19 -35 -5 0 -7 -4 -3 -9 6 -11 -230 -251 -247 -251
-6 0 -18 -8 -27 -18 -9 -9 -28 -23 -43 -31 -16 -8 -28 -18 -28 -23 0 -4 -9 -8
-19 -8 -11 0 -21 -3 -23 -7 -5 -12 -108 -65 -108 -56 0 4 -4 4 -8 -2 -8 -11
-69 -36 -89 -38 -7 0 -13 -4 -13 -8 0 -4 -15 -9 -32 -12 -18 -3 -53 -11 -78
-17 -133 -34 -315 -43 -461 -24 -62 8 -76 7 -72 -3 3 -7 13 -13 22 -13 9 0 21
-4 27 -9 13 -12 118 -46 184 -60 177 -35 251 -36 435 -6 47 8 164 43 195 58
18 10 39 17 47 17 7 0 13 5 13 10 0 6 9 10 20 10 11 0 20 5 20 10 0 6 9 10 19
10 11 0 21 4 23 9 2 5 10 11 18 13 8 2 23 11 34 21 11 9 26 17 33 17 7 0 13 4
13 8 0 5 12 15 28 23 15 8 34 21 42 29 8 9 31 27 50 40 42 30 220 206 220 218
0 5 14 23 30 40 17 18 30 36 30 40 0 5 8 17 18 28 23 26 67 109 86 164 19 54
21 132 4 162 -21 35 -76 88 -93 88 -8 0 -15 5 -15 10 0 6 -7 10 -15 10 -8 0
-23 4 -33 9 -25 13 -81 28 -132 37 -25 4 -48 9 -52 10 -5 1 -48 2 -98 3 l-90
1 0 39 c0 44 -11 58 -32 39 -14 -14 -76 -38 -96 -38 -17 0 -15 29 3 46 8 9 15
26 15 40 0 28 1 27 -25 12z"/>
<path d="M2920 5769 c0 -18 -4 -46 -9 -63 -5 -17 -15 -51 -22 -76 -19 -67 -56
-146 -82 -172 -26 -27 -39 -53 -63 -123 -28 -83 -57 -279 -58 -395 l-1 -64 32
-7 c57 -11 70 -33 79 -134 10 -118 28 -251 36 -267 4 -9 9 -28 10 -42 1 -15 6
-26 10 -26 4 0 8 -9 8 -20 0 -11 4 -28 9 -38 5 -9 16 -32 23 -49 7 -18 16 -33
20 -33 5 0 8 -6 8 -13 0 -7 9 -23 20 -35 11 -12 20 -28 20 -37 0 -8 4 -15 9
-15 18 0 24 -80 31 -400 6 -319 10 -359 44 -450 9 -25 18 -49 19 -54 3 -14 30
-46 38 -46 4 0 1 24 -7 53 -18 68 -18 273 0 357 18 82 48 174 58 178 4 2 8 9
8 16 0 18 24 66 33 66 5 0 6 4 2 9 -3 5 2 16 10 24 8 9 15 23 15 31 0 9 4 16
9 16 5 0 11 8 14 18 6 17 37 72 47 82 6 6 50 86 65 117 5 13 13 23 18 23 4 0
7 9 7 20 0 11 5 20 10 20 6 0 10 6 10 13 0 8 8 29 17 47 49 99 55 270 12 352
-5 10 -9 24 -9 32 0 8 -4 16 -8 18 -5 2 -24 32 -43 68 -18 36 -42 74 -51 84
-10 11 -18 26 -18 33 0 7 -4 13 -8 13 -5 0 -15 12 -23 27 -8 15 -23 38 -34 51
-11 13 -20 27 -20 30 0 4 -12 20 -27 36 -16 16 -28 33 -28 37 0 5 -16 26 -35
46 -19 20 -33 38 -31 41 2 2 -16 24 -40 50 -24 25 -44 49 -44 53 0 4 -25 33
-55 66 -30 32 -55 64 -55 71 0 6 -4 12 -10 12 -12 0 -13 34 -1 58 35 69 51
142 51 236 0 41 -4 78 -10 81 -6 4 -10 -7 -10 -26z"/>
<path d="M4906 5769 c-13 -66 5 -204 33 -257 6 -12 8 -22 4 -22 -4 0 -3 -4 4
-8 6 -4 14 -18 18 -32 5 -21 -4 -35 -50 -83 -30 -31 -55 -61 -55 -65 0 -4 -20
-29 -45 -56 -25 -26 -45 -51 -45 -55 0 -4 -16 -24 -35 -44 -19 -20 -35 -41
-35 -46 0 -4 -12 -21 -27 -37 -16 -16 -34 -42 -42 -57 -8 -15 -18 -27 -21 -27
-4 0 -13 -13 -20 -30 -7 -16 -16 -30 -20 -30 -4 0 -13 -13 -20 -30 -7 -16 -16
-30 -20 -30 -4 0 -13 -13 -20 -30 -7 -16 -16 -30 -21 -30 -5 0 -9 -9 -9 -19 0
-11 -3 -21 -7 -23 -14 -6 -66 -112 -76 -152 -16 -73 -19 -138 -8 -178 6 -21
16 -57 23 -80 12 -47 88 -201 100 -206 4 -2 8 -12 8 -23 0 -10 3 -19 8 -19 4
0 18 -21 32 -47 14 -27 30 -54 37 -61 7 -8 11 -18 8 -23 -4 -5 -2 -9 2 -9 8 0
43 -66 97 -179 9 -19 16 -41 16 -51 0 -9 4 -20 8 -26 32 -35 48 -351 24 -438
-6 -22 -10 -42 -7 -44 6 -6 28 19 42 48 51 107 66 242 58 530 -5 168 -3 229 8
280 14 62 41 129 57 140 15 10 67 127 87 195 31 102 43 180 43 276 0 47 3 89
8 93 4 4 7 11 8 14 0 4 6 19 14 34 15 31 40 43 70 33 19 -6 20 -2 20 81 0 48
-4 113 -10 143 -5 31 -14 88 -21 126 -18 111 -57 215 -93 244 -9 8 -16 20 -16
27 0 8 -4 14 -8 14 -10 0 -47 82 -55 120 -19 88 -39 175 -42 178 -1 1 -5 -12
-9 -29z"/>
<path d="M3715 3468 c-107 -21 -251 -63 -272 -80 -7 -6 -13 -16 -13 -22 0 -8
2 -8 8 0 4 6 21 14 37 17 17 3 50 11 75 17 102 26 195 34 370 34 204 0 263 -7
452 -53 26 -6 35 -5 32 3 -5 13 -161 64 -241 78 -80 14 -387 18 -448 6z"/>
<path d="M3174 3221 c0 -138 -4 -179 -24 -226 -45 -111 -62 -315 -34 -403 17
-55 83 -136 131 -161 25 -13 93 -15 93 -3 0 4 28 14 63 21 34 7 74 17 89 23
39 14 308 -6 308 -23 0 -12 237 -12 242 0 3 8 58 16 198 28 68 5 133 -5 236
-38 34 -10 71 -19 83 -19 25 0 121 60 121 76 0 5 8 19 18 30 50 56 58 237 16
394 -49 183 -56 231 -52 332 3 79 2 92 -8 70 -18 -43 -26 -218 -13 -302 27
-186 21 -284 -23 -372 -26 -53 -76 -74 -135 -56 -24 7 -43 16 -43 21 0 4 -3 6
-7 4 -5 -3 -33 4 -63 14 -30 11 -63 22 -72 25 -10 4 -18 10 -18 15 0 5 -6 9
-14 9 -16 0 -26 21 -26 59 0 19 14 41 48 74 26 26 51 47 55 47 13 0 151 144
166 173 8 15 18 27 23 27 4 0 8 9 8 20 0 11 4 20 8 20 5 0 10 25 11 55 2 58
-14 86 -67 114 -22 12 -72 11 -72 0 0 -22 -254 -80 -279 -65 -3 3 -49 8 -101
11 -52 4 -98 9 -101 11 -4 2 -62 -3 -130 -11 -93 -11 -142 -12 -194 -4 -87 12
-155 31 -155 42 0 4 -4 6 -9 2 -5 -3 -16 2 -24 10 -46 45 -147 -22 -147 -99 0
-38 29 -103 63 -140 9 -11 17 -24 17 -29 0 -10 98 -107 108 -107 16 0 129
-117 135 -139 15 -60 -18 -85 -188 -140 -97 -31 -101 -32 -137 -17 -21 9 -38
23 -38 31 0 8 -4 15 -8 15 -7 0 -23 45 -39 110 -13 55 -15 115 -4 169 35 183
35 187 21 293 -23 174 -35 177 -36 9z m226 9 c0 -5 9 -10 20 -10 17 0 20 -7
20 -50 0 -27 5 -50 10 -50 6 0 10 -7 10 -15 0 -18 64 -85 80 -85 16 0 100 -88
100 -105 0 -8 5 -15 10 -15 6 0 10 -13 10 -30 0 -16 -4 -30 -10 -30 -5 0 -10
5 -10 10 0 6 -8 10 -18 10 -10 0 -24 9 -32 20 -8 11 -22 20 -32 20 -10 0 -18
5 -18 10 0 6 -9 10 -20 10 -11 0 -20 5 -20 10 0 6 -9 10 -20 10 -11 0 -20 4
-20 8 0 5 -12 15 -27 23 -38 19 -73 55 -73 74 0 8 -4 15 -10 15 -5 0 -10 12
-10 26 0 14 -5 35 -11 47 -9 16 -9 22 0 25 6 2 11 15 11 28 0 14 6 31 13 39
14 16 47 20 47 5z m1086 -4 c8 -8 14 -22 14 -30 0 -9 5 -16 10 -16 6 0 10 -18
10 -40 0 -22 -4 -40 -10 -40 -5 0 -10 -9 -10 -20 0 -11 -4 -20 -10 -20 -5 0
-10 -7 -10 -15 0 -9 -16 -31 -35 -50 -19 -19 -41 -35 -50 -35 -8 0 -15 -4 -15
-10 0 -5 -9 -10 -20 -10 -11 0 -20 -4 -20 -10 0 -5 -9 -10 -20 -10 -11 0 -20
-4 -20 -10 0 -5 -7 -10 -16 -10 -9 0 -29 -13 -44 -30 -15 -16 -35 -30 -44 -30
-18 0 -22 35 -6 45 6 3 10 15 10 26 0 22 51 77 93 98 15 8 27 18 27 23 0 4 7
8 15 8 9 0 19 8 22 18 4 9 15 24 25 33 12 11 18 30 18 58 0 29 7 49 23 66 26
28 43 31 63 11z"/>
<path d="M3560 2430 c-14 -5 -46 -15 -72 -22 -29 -7 -48 -18 -48 -27 0 -14 48
-61 63 -61 5 0 15 -7 24 -15 8 -9 28 -19 44 -22 16 -3 29 -9 29 -13 0 -7 40
-19 90 -26 14 -2 41 -9 60 -15 70 -21 368 -3 467 29 115 37 237 142 164 142
-9 0 -21 4 -27 8 -28 26 -254 43 -254 20 0 -5 -31 -8 -70 -8 -40 0 -70 -4 -70
-10 0 -5 -18 -10 -40 -10 -22 0 -40 4 -40 9 0 8 -41 13 -225 25 -38 3 -81 1
-95 -4z"/>
</g>
</svg>
